<svg version="1.1" xmlns="http://www.w3.org/2000/svg" xmlns:xlink="http://www.w3.org/1999/xlink" width="800" height="800"><defs/><g transform="scale(2,2)"><g id="background-4f1a1468"><rect fill="white" stroke="none" x="0" y="0" width="400" height="400" class="dcg-svg-background"/></g><g id="background-images-4f1a1468"/><g id="graphpaper-4f1a1468"><g id="grid-4f1a1468"><g><path fill="none" stroke="rgb(0,0,0)" class="dcg-svg-minor-gridline" paint-order="fill stroke markers" d=" M 3.5 0 L 3.5 400" stroke-opacity="0.2" stroke-miterlimit="10" stroke-dasharray=""/><path fill="none" stroke="rgb(0,0,0)" class="dcg-svg-minor-gridline" paint-order="fill stroke markers" d=" M 27.5 0 L 27.5 400" stroke-opacity="0.2" stroke-miterlimit="10" stroke-dasharray=""/><path fill="none" stroke="rgb(0,0,0)" class="dcg-svg-minor-gridline" paint-order="fill stroke markers" d=" M 51.5 0 L 51.5 400" stroke-opacity="0.2" stroke-miterlimit="10" stroke-dasharray=""/><path fill="none" stroke="rgb(0,0,0)" class="dcg-svg-minor-gridline" paint-order="fill stroke markers" d=" M 75.5 0 L 75.5 400" stroke-opacity="0.2" stroke-miterlimit="10" stroke-dasharray=""/><path fill="none" stroke="rgb(0,0,0)" class="dcg-svg-minor-gridline" paint-order="fill stroke markers" d=" M 99.5 0 L 99.5 400" stroke-opacity="0.2" stroke-miterlimit="10" stroke-dasharray=""/><path fill="none" stroke="rgb(0,0,0)" class="dcg-svg-minor-gridline" paint-order="fill stroke markers" d=" M 123.5 0 L 123.5 400" stroke-opacity="0.2" stroke-miterlimit="10" stroke-dasharray=""/><path fill="none" stroke="rgb(0,0,0)" class="dcg-svg-minor-gridline" paint-order="fill stroke markers" d=" M 147.5 0 L 147.5 400" stroke-opacity="0.2" stroke-miterlimit="10" stroke-dasharray=""/><path fill="none" stroke="rgb(0,0,0)" class="dcg-svg-minor-gridline" paint-order="fill stroke markers" d=" M 195.5 0 L 195.5 400" stroke-opacity="0.2" stroke-miterlimit="10" stroke-dasharray=""/><path fill="none" stroke="rgb(0,0,0)" class="dcg-svg-minor-gridline" paint-order="fill stroke markers" d=" M 219.5 0 L 219.5 400" stroke-opacity="0.2" stroke-miterlimit="10" stroke-dasharray=""/><path fill="none" stroke="rgb(0,0,0)" class="dcg-svg-minor-gridline" paint-order="fill stroke markers" d=" M 243.5 0 L 243.5 400" stroke-opacity="0.2" stroke-miterlimit="10" stroke-dasharray=""/><path fill="none" stroke="rgb(0,0,0)" class="dcg-svg-minor-gridline" paint-order="fill stroke markers" d=" M 267.5 0 L 267.5 400" stroke-opacity="0.2" stroke-miterlimit="10" stroke-dasharray=""/><path fill="none" stroke="rgb(0,0,0)" class="dcg-svg-minor-gridline" paint-order="fill stroke markers" d=" M 291.5 0 L 291.5 400" stroke-opacity="0.2" stroke-miterlimit="10" stroke-dasharray=""/><path fill="none" stroke="rgb(0,0,0)" class="dcg-svg-minor-gridline" paint-order="fill stroke markers" d=" M 315.5 0 L 315.5 400" stroke-opacity="0.2" stroke-miterlimit="10" stroke-dasharray=""/><path fill="none" stroke="rgb(0,0,0)" class="dcg-svg-minor-gridline" paint-order="fill stroke markers" d=" M 339.5 0 L 339.5 400" stroke-opacity="0.2" stroke-miterlimit="10" stroke-dasharray=""/><path fill="none" stroke="rgb(0,0,0)" class="dcg-svg-minor-gridline" paint-order="fill stroke markers" d=" M 363.5 0 L 363.5 400" stroke-opacity="0.2" stroke-miterlimit="10" stroke-dasharray=""/><path fill="none" stroke="rgb(0,0,0)" class="dcg-svg-minor-gridline" paint-order="fill stroke markers" d=" M 387.5 0 L 387.5 400" stroke-opacity="0.2" stroke-miterlimit="10" stroke-dasharray=""/><path fill="none" stroke="rgb(0,0,0)" class="dcg-svg-minor-gridline" paint-order="fill stroke markers" d=" M 0 387.5 L 400 387.5" stroke-opacity="0.2" stroke-miterlimit="10" stroke-dasharray=""/><path fill="none" stroke="rgb(0,0,0)" class="dcg-svg-minor-gridline" paint-order="fill stroke markers" d=" M 0 363.5 L 400 363.5" stroke-opacity="0.2" stroke-miterlimit="10" stroke-dasharray=""/><path fill="none" stroke="rgb(0,0,0)" class="dcg-svg-minor-gridline" paint-order="fill stroke markers" d=" M 0 339.5 L 400 339.5" stroke-opacity="0.2" stroke-miterlimit="10" stroke-dasharray=""/><path fill="none" stroke="rgb(0,0,0)" class="dcg-svg-minor-gridline" paint-order="fill stroke markers" d=" M 0 315.5 L 400 315.5" stroke-opacity="0.2" stroke-miterlimit="10" stroke-dasharray=""/><path fill="none" stroke="rgb(0,0,0)" class="dcg-svg-minor-gridline" paint-order="fill stroke markers" d=" M 0 291.5 L 400 291.5" stroke-opacity="0.2" stroke-miterlimit="10" stroke-dasharray=""/><path fill="none" stroke="rgb(0,0,0)" class="dcg-svg-minor-gridline" paint-order="fill stroke markers" d=" M 0 267.5 L 400 267.5" stroke-opacity="0.2" stroke-miterlimit="10" stroke-dasharray=""/><path fill="none" stroke="rgb(0,0,0)" class="dcg-svg-minor-gridline" paint-order="fill stroke markers" d=" M 0 243.5 L 400 243.5" stroke-opacity="0.2" stroke-miterlimit="10" stroke-dasharray=""/><path fill="none" stroke="rgb(0,0,0)" class="dcg-svg-minor-gridline" paint-order="fill stroke markers" d=" M 0 219.5 L 400 219.5" stroke-opacity="0.2" stroke-miterlimit="10" stroke-dasharray=""/><path fill="none" stroke="rgb(0,0,0)" class="dcg-svg-minor-gridline" paint-order="fill stroke markers" d=" M 0 171.5 L 400 171.5" stroke-opacity="0.2" stroke-miterlimit="10" stroke-dasharray=""/><path fill="none" stroke="rgb(0,0,0)" class="dcg-svg-minor-gridline" paint-order="fill stroke markers" d=" M 0 147.5 L 400 147.5" stroke-opacity="0.2" stroke-miterlimit="10" stroke-dasharray=""/><path fill="none" stroke="rgb(0,0,0)" class="dcg-svg-minor-gridline" paint-order="fill stroke markers" d=" M 0 123.5 L 400 123.5" stroke-opacity="0.2" stroke-miterlimit="10" stroke-dasharray=""/><path fill="none" stroke="rgb(0,0,0)" class="dcg-svg-minor-gridline" paint-order="fill stroke markers" d=" M 0 99.5 L 400 99.5" stroke-opacity="0.2" stroke-miterlimit="10" stroke-dasharray=""/><path fill="none" stroke="rgb(0,0,0)" class="dcg-svg-minor-gridline" paint-order="fill stroke markers" d=" M 0 75.5 L 400 75.5" stroke-opacity="0.2" stroke-miterlimit="10" stroke-dasharray=""/><path fill="none" stroke="rgb(0,0,0)" class="dcg-svg-minor-gridline" paint-order="fill stroke markers" d=" M 0 51.5 L 400 51.5" stroke-opacity="0.2" stroke-miterlimit="10" stroke-dasharray=""/><path fill="none" stroke="rgb(0,0,0)" class="dcg-svg-minor-gridline" paint-order="fill stroke markers" d=" M 0 27.5 L 400 27.5" stroke-opacity="0.2" stroke-miterlimit="10" stroke-dasharray=""/><path fill="none" stroke="rgb(0,0,0)" class="dcg-svg-minor-gridline" paint-order="fill stroke markers" d=" M 0 3.5 L 400 3.5" stroke-opacity="0.2" stroke-miterlimit="10" stroke-dasharray=""/><path fill="none" stroke="rgb(0,0,0)" class="dcg-svg-major-gridline" paint-order="fill stroke markers" d=" M 51.5 0 L 51.5 400" stroke-opacity="0.2500000000000001" stroke-miterlimit="10" stroke-dasharray=""/><path fill="none" stroke="rgb(0,0,0)" class="dcg-svg-major-gridline" paint-order="fill stroke markers" d=" M 291.5 0 L 291.5 400" stroke-opacity="0.2500000000000001" stroke-miterlimit="10" stroke-dasharray=""/><path fill="none" stroke="rgb(0,0,0)" class="dcg-svg-major-gridline" paint-order="fill stroke markers" d=" M 0 315.5 L 400 315.5" stroke-opacity="0.2500000000000001" stroke-miterlimit="10" stroke-dasharray=""/><path fill="none" stroke="rgb(0,0,0)" class="dcg-svg-major-gridline" paint-order="fill stroke markers" d=" M 0 75.5 L 400 75.5" stroke-opacity="0.2500000000000001" stroke-miterlimit="10" stroke-dasharray=""/></g></g><g id="axis-4f1a1468"><g id="yaxis-4f1a1468"><title>Y axis</title><path fill="none" stroke="rgb(0,0,0)" class="dcg-svg-axis-line" paint-order="fill stroke markers" d=" M 172 0 L 172 400" stroke-opacity="0.9" stroke-miterlimit="10" stroke-width="1.5" stroke-dasharray=""/></g><g id="xaxis-4f1a1468"><title>X axis</title><path fill="none" stroke="rgb(0,0,0)" class="dcg-svg-axis-line" paint-order="fill stroke markers" d=" M 0 196 L 400 196" stroke-opacity="0.9" stroke-miterlimit="10" stroke-width="1.5" stroke-dasharray=""/></g><g><g class="dcg-svg-axis-value"><text fill="none" stroke="#ffffff" font-family="Arial" font-size="14px" font-style="normal" font-weight="normal" text-decoration="normal" x="163.03113452808273" y="212.20737942092484" text-anchor="middle" stroke-miterlimit="2" stroke-width="3" stroke-dasharray="">0</text><text fill="#000000" stroke="none" font-family="Arial" font-size="14px" font-style="normal" font-weight="normal" text-decoration="normal" x="163.03113452808273" y="212.20737942092484" text-anchor="middle">0</text></g><g class="dcg-svg-axis-value"><text fill="none" stroke="#ffffff" font-family="Arial" font-size="14px" font-style="normal" font-weight="normal" text-decoration="normal" x="49.584845465582745" y="212.20737942092484" text-anchor="middle" stroke-miterlimit="2" stroke-width="3" stroke-dasharray="">-5</text><text fill="#000000" stroke="none" font-family="Arial" font-size="14px" font-style="normal" font-weight="normal" text-decoration="normal" x="49.584845465582745" y="212.20737942092484" text-anchor="middle">-5</text></g><g class="dcg-svg-axis-value"><text fill="none" stroke="#ffffff" font-family="Arial" font-size="14px" font-style="normal" font-weight="normal" text-decoration="normal" x="291.9774235905827" y="212.20737942092484" text-anchor="middle" stroke-miterlimit="2" stroke-width="3" stroke-dasharray="">5</text><text fill="#000000" stroke="none" font-family="Arial" font-size="14px" font-style="normal" font-weight="normal" text-decoration="normal" x="291.9774235905827" y="212.20737942092484" text-anchor="middle">5</text></g><g class="dcg-svg-axis-value"><text fill="none" stroke="#ffffff" font-family="Arial" font-size="14px" font-style="normal" font-weight="normal" text-decoration="normal" x="160.53113452808273" y="320.15366848342484" text-anchor="middle" stroke-miterlimit="2" stroke-width="3" stroke-dasharray="">-5</text><text fill="#000000" stroke="none" font-family="Arial" font-size="14px" font-style="normal" font-weight="normal" text-decoration="normal" x="160.53113452808273" y="320.15366848342484" text-anchor="middle">-5</text></g><g class="dcg-svg-axis-value"><text fill="none" stroke="#ffffff" font-family="Arial" font-size="14px" font-style="normal" font-weight="normal" text-decoration="normal" x="163.03113452808273" y="80.26109035842487" text-anchor="middle" stroke-miterlimit="2" stroke-width="3" stroke-dasharray="">5</text><text fill="#000000" stroke="none" font-family="Arial" font-size="14px" font-style="normal" font-weight="normal" text-decoration="normal" x="163.03113452808273" y="80.26109035842487" text-anchor="middle">5</text></g></g></g></g><g id="expressions-4f1a1468"><g id="sketch-4f1a1468"><title>Expression 1</title><path fill="#c74440" stroke="none" paint-order="stroke fill markers" d="" fill-opacity="0.4"/><g><path fill="none" stroke="#c74440" class="dcg-svg-curve" paint-order="fill stroke markers" d=" M -0.5 214.51034258864638 L -0.5 214.51034258864638 L 2.9179687500000018 212.17239805635987 L 6.824218749999995 209.0997157019949 L 11.21875 205.22993304119305 L 16.687500000000004 199.9939159001832 L 31.824218750000007 185.26106392987097 L 36.218749999999986 181.52226706019366 L 40.12499999999998 178.59924263745438 L 43.64062499999998 176.35788772624835 L 46.765625 174.71597801339612 L 49.695312499999986 173.50225451498795 L 52.429687499999986 172.67016164700308 L 55.06640624999999 172.15321102975975 L 57.605468749999986 171.92622192976523 L 60.14453125 171.96754040182662 L 62.68359374999999 172.27670400961594 L 65.22265625 172.85025259411967 L 67.85937499999997 173.71878295585145 L 70.69140624999999 174.94945796456432 L 73.71874999999999 176.58698966126627 L 77.03906249999999 178.73505712540492 L 80.75 181.52219442993754 L 84.94921875 185.08628016538384 L 89.9296875 189.73243595956257 L 97.93750000000001 197.66861318719626 L 105.26171874999999 204.77811307795497 L 109.94921874999999 208.93611923592212 L 113.953125 212.10044430378673 L 117.66406249999999 214.63290482151328 L 120.98437499999999 216.52113678731578 L 124.01171875 217.89979662869646 L 126.84375000000001 218.87309174491438 L 129.48046875 219.49199124749126 L 132.01953124999997 219.8189194517988 L 134.55859374999997 219.87814017065128 L 137.09765625 219.66899060577953 L 139.63671874999997 219.19381155905617 L 142.2734375 218.42451365266547 L 145.0078125 217.3397412657344 L 147.93749999999997 215.86915230944103 L 151.16015624999997 213.90890492148228 L 154.67578124999997 211.40171825179547 L 158.67968749999997 208.14487595979418 L 163.26953124999997 203.99864015603737 L 169.32421874999997 198.10318356416755 L 180.84765624999997 186.81529231891017 L 185.43749999999997 182.75888575896502 L 189.44140625 179.60722434967437 L 193.0546875 177.14953151731694 L 196.27734375 175.31424858930546 L 199.30468749999997 173.927567735112 L 202.13671874999997 172.94635462830595 L 204.77343749999997 172.31982198347302 L 207.31249999999997 171.98539334900164 L 209.8515625 171.9186100400783 L 212.39062499999997 172.1202194954781 L 214.92968749999997 172.5879653022316 L 217.56640624999997 173.34974635162993 L 220.30078125 174.42703692439832 L 223.23046875 175.8900726895934 L 226.453125 177.84269582005714 L 229.96874999999997 180.34253861853767 L 233.97265624999997 183.59244798376284 L 238.56249999999997 187.73284615019168 L 244.61718749999997 193.62438019441615 L 256.33593749999994 205.09793047138325 L 260.92578124999994 209.14327694080043 L 264.9296875 212.28219074893465 L 268.54296874999994 214.7262054612757 L 271.76562499999994 216.5478080634726 L 274.79296874999994 217.92059387928933 L 277.52734375 218.85999291603943 L 280.1640625 219.4837349069124 L 282.70312499999994 219.81542111677925 L 285.24218749999994 219.87943899455564 L 287.78125 219.67507205217103 L 290.32031249999994 219.20460756438848 L 292.95703124999994 218.44007695375169 L 295.69140624999994 217.36004930912964 L 298.62109375 215.8942499733387 L 301.84374999999994 213.93883678008586 L 305.359375 211.43630588700987 L 309.36328124999994 208.18385792905775 L 313.953125 204.04132077944013 L 320.0078125 198.14834626052107 L 331.62890624999994 186.76691075226702 L 336.21875 182.71516303417863 L 340.22265625 179.56887624744851 L 343.8359375 177.11695336378932 L 347.05859374999994 175.28744333856466 L 350.08593749999994 173.9066275439762 L 352.91796874999994 172.93120450406903 L 355.5546875 172.3102539082579 L 358.09375 171.98131051708992 L 360.63281249999994 171.92005814652362 L 363.17187499999994 172.1271823330735 L 365.7109375 172.60036494290068 L 368.34765624999994 173.36764420639557 L 371.08203125 174.45040763963163 L 374.01171874999994 175.9189688044224 L 377.234375 177.87716973713162 L 380.74999999999994 180.38238575140988 L 384.75390625 183.63736843767848 L 389.34374999999994 187.7820396485111 L 395.39843749999994 193.67644764036098 L 399.5 197.7729067573195" stroke-linecap="round" stroke-linejoin="round" stroke-miterlimit="10" stroke-width="2.5" stroke-opacity="0.9" stroke-dasharray=""/></g></g></g><g id="labels-4f1a1468"/></g></svg>